<svg width="15" height="14" viewBox="0 0 15 14" fill="none" xmlns="http://www.w3.org/2000/svg">
<path d="M14.6152 2.37424L12.6747 0.898218C12.6146 0.850495 12.5404 0.816406 12.4556 0.816406C12.3708 0.816406 12.293 0.850495 12.2329 0.901627L5.17451 9.6487C5.17451 9.6487 2.39993 7.07503 2.32217 7.00003C2.24441 6.92504 2.14191 6.79891 1.98639 6.79891C1.83087 6.79891 1.76018 6.90458 1.67889 6.98299C1.6188 7.04435 0.629142 8.04654 0.14138 8.54423C0.113104 8.57491 0.0954316 8.59196 0.0706901 8.61582C0.028276 8.67377 0 8.73854 0 8.81012C0 8.88512 0.028276 8.94648 0.0706901 9.00443L0.169656 9.09306C0.169656 9.09306 5.09322 13.6541 5.17451 13.7325C5.25581 13.8109 5.35477 13.9097 5.49969 13.9097C5.64107 13.9097 5.75771 13.7632 5.82486 13.6984L14.6293 2.79012C14.6717 2.73217 14.7 2.6674 14.7 2.59241C14.7 2.50719 14.6647 2.4356 14.6152 2.37424Z" fill="#42BFB0"/>
</svg>
